<svg width="32" height="32" viewBox="0 0 32 32" fill="none" xmlns="http://www.w3.org/2000/svg">
<path d="M22.4616 15H16.5386V9.5C16.5386 9.36739 16.4819 9.24021 16.3809 9.14645C16.2799 9.05268 16.143 9 16.0002 9C15.8574 9 15.7204 9.05268 15.6194 9.14645C15.5185 9.24021 15.4617 9.36739 15.4617 9.5V15H9.5388C9.396 15 9.25904 15.0527 9.15806 15.1464C9.05708 15.2402 9.00035 15.3674 9.00035 15.5C8.9977 15.565 9.01007 15.6297 9.03664 15.6899C9.06321 15.7501 9.10336 15.8043 9.15439 15.8488C9.20542 15.8933 9.26613 15.9272 9.33244 15.9481C9.39875 15.969 9.46912 15.9765 9.5388 15.97H15.4617V21.5C15.4617 21.6326 15.5185 21.7598 15.6194 21.8536C15.7204 21.9473 15.8574 22 16.0002 22C16.143 22 16.2799 21.9473 16.3809 21.8536C16.4819 21.7598 16.5386 21.6326 16.5386 21.5V16H22.4616C22.6044 16 22.7413 15.9473 22.8423 15.8536C22.9433 15.7598 23 15.6326 23 15.5C23 15.3674 22.9433 15.2402 22.8423 15.1464C22.7413 15.0527 22.6044 15 22.4616 15Z" fill="#919191"/>
</svg>
