<svg width="32" height="32" viewBox="0 0 32 32" fill="none" xmlns="http://www.w3.org/2000/svg">
<path fill-rule="evenodd" clip-rule="evenodd" d="M11.6342 8.24801C14.617 7.91733 17.6272 7.91733 20.61 8.24801C22.3609 8.44351 23.7744 9.82255 23.9795 11.583C24.3341 14.6085 24.3341 17.6646 23.9795 20.6901C23.7735 22.4505 22.3599 23.8286 20.61 24.0251C17.6272 24.3557 14.617 24.3557 11.6342 24.0251C9.88337 23.8286 8.46983 22.4505 8.26475 20.6901C7.91175 17.6646 7.91175 14.6084 8.26475 11.583C8.46983 9.82255 9.88433 8.44351 11.6342 8.24801ZM20.4509 9.67593C17.5739 9.35702 14.6704 9.35702 11.7933 9.67593C11.2607 9.73501 10.7636 9.97193 10.3823 10.3484C10.0009 10.7249 9.75763 11.2189 9.6917 11.7507C9.35085 14.665 9.35085 17.609 9.6917 20.5233C9.75783 21.0549 10.0012 21.5487 10.3825 21.925C10.7639 22.3013 11.2609 22.5381 11.7933 22.5971C14.6463 22.9153 17.598 22.9153 20.4509 22.5971C20.9832 22.5379 21.48 22.301 21.8611 21.9248C22.2423 21.5485 22.4855 21.0548 22.5516 20.5233C22.8924 17.609 22.8924 14.665 22.5516 11.7507C22.4853 11.2194 22.242 10.7259 21.8609 10.3498C21.4797 9.97378 20.9831 9.73705 20.4509 9.67784" fill="#919191"/>
<path d="M11 15.785C11 15.5943 11.0757 15.4115 11.2105 15.2767C11.3453 15.1419 11.5281 15.0662 11.7187 15.0662H15.0662V11.7187C15.0662 11.5281 15.1419 11.3453 15.2767 11.2105C15.4115 11.0757 15.5943 11 15.785 11C15.9756 11 16.1584 11.0757 16.2932 11.2105C16.428 11.3453 16.5037 11.5281 16.5037 11.7187V15.0662H19.8512C20.0418 15.0662 20.2246 15.1419 20.3594 15.2767C20.4942 15.4115 20.5699 15.5943 20.5699 15.785C20.5699 15.9756 20.4942 16.1584 20.3594 16.2932C20.2246 16.428 20.0418 16.5037 19.8512 16.5037H16.5037V19.8512C16.5037 20.0418 16.428 20.2246 16.2932 20.3594C16.1584 20.4942 15.9756 20.5699 15.785 20.5699C15.5943 20.5699 15.4115 20.4942 15.2767 20.3594C15.1419 20.2246 15.0662 20.0418 15.0662 19.8512V16.5037H11.7187C11.5281 16.5037 11.3453 16.428 11.2105 16.2932C11.0757 16.1584 11 15.9756 11 15.785Z" fill="#919191"/>
</svg>
