<svg width="20" height="21" viewBox="0 0 20 21" fill="none" xmlns="http://www.w3.org/2000/svg">
<path d="M12.45 16.502C12.3353 17.0671 12.0286 17.5752 11.5821 17.9402C11.1356 18.3051 10.5767 18.5045 10 18.5045C9.42333 18.5045 8.86439 18.3051 8.41788 17.9402C7.97137 17.5752 7.66477 17.0671 7.55001 16.502H12.45ZM9.99801 2.5C13.147 2.5 15.742 4.835 15.982 7.855L15.995 8.078L16 8.302L15.999 11.908L16.953 14.495L16.978 14.58L16.994 14.666L16.999 14.755C16.999 15.07 16.803 15.345 16.477 15.462L16.363 15.495L16.249 15.505H3.75101C3.66258 15.5047 3.5749 15.4888 3.49201 15.458C3.20501 15.353 3.01601 15.086 3.01001 14.742L3.01401 14.625L3.04801 14.495L3.99801 11.911L4.00001 8.293L4.00401 8.068C4.12701 4.951 6.77101 2.5 9.99801 2.5Z" fill="url(#paint0_linear_2_256)"/>
<defs>
<linearGradient id="paint0_linear_2_256" x1="10.0045" y1="2.5" x2="10.0045" y2="18.5045" gradientUnits="userSpaceOnUse">
<stop stop-color="#200122"/>
<stop offset="1" stop-color="#108DC7"/>
</linearGradient>
</defs>
</svg>
