<svg width="17" height="17" viewBox="0 0 17 17" fill="none" xmlns="http://www.w3.org/2000/svg">
<path d="M8.5 10.7667C9.75185 10.7667 10.7667 9.75185 10.7667 8.5C10.7667 7.24816 9.75185 6.23334 8.5 6.23334C7.24816 6.23334 6.23334 7.24816 6.23334 8.5C6.23334 9.75185 7.24816 10.7667 8.5 10.7667Z" fill="url(#paint0_linear_2100_631)"/>
<path d="M6.37502 1.41669L5.07877 2.83335H2.83335C2.05419 2.83335 1.41669 3.47085 1.41669 4.25002V12.75C1.41669 13.5292 2.05419 14.1667 2.83335 14.1667H14.1667C14.9459 14.1667 15.5834 13.5292 15.5834 12.75V4.25002C15.5834 3.47085 14.9459 2.83335 14.1667 2.83335H11.9213L10.625 1.41669H6.37502ZM8.50002 12.0417C6.54502 12.0417 4.95835 10.455 4.95835 8.50002C4.95835 6.54502 6.54502 4.95835 8.50002 4.95835C10.455 4.95835 12.0417 6.54502 12.0417 8.50002C12.0417 10.455 10.455 12.0417 8.50002 12.0417Z" fill="url(#paint1_linear_2100_631)"/>
<defs>
<linearGradient id="paint0_linear_2100_631" x1="8.5" y1="6.23334" x2="8.5" y2="10.7667" gradientUnits="userSpaceOnUse">
<stop stop-color="#200122"/>
<stop offset="1" stop-color="#108DC7"/>
</linearGradient>
<linearGradient id="paint1_linear_2100_631" x1="8.50002" y1="1.41669" x2="8.50002" y2="14.1667" gradientUnits="userSpaceOnUse">
<stop stop-color="#200122"/>
<stop offset="1" stop-color="#108DC7"/>
</linearGradient>
</defs>
</svg>
