<svg width="33" height="32" viewBox="0 0 33 32" fill="none" xmlns="http://www.w3.org/2000/svg">
<path d="M19.9049 11.7369C19.3554 10.4329 18.3786 9.36128 17.1396 8.70313C15.9005 8.04498 14.4753 7.8407 13.1048 8.12483C11.7343 8.40896 10.5027 9.16407 9.6181 10.2625C8.73351 11.3609 8.25024 12.7353 8.25 14.1532V19.0766C8.25 19.403 8.37793 19.7161 8.60566 19.9469C8.83338 20.1778 9.14224 20.3074 9.46429 20.3074H13.6133C14.0871 21.4042 14.8657 22.3374 15.8539 22.9931C16.8422 23.6488 17.9974 23.9987 19.1786 24H24.0357C24.3578 24 24.6666 23.8703 24.8943 23.6395C25.1221 23.4087 25.25 23.0956 25.25 22.7691V17.8457C25.2497 16.3412 24.7057 14.8889 23.7209 13.7634C22.736 12.6378 21.3785 11.9169 19.9049 11.7369ZM24.0357 22.7691H19.1786C18.3197 22.7682 17.4764 22.5368 16.7342 22.0987C15.9921 21.6605 15.3775 21.0311 14.9529 20.2744C15.7844 20.1869 16.5892 19.9261 17.3166 19.5085C18.044 19.0908 18.6784 18.5252 19.18 17.8472C19.6816 17.1692 20.0394 16.3934 20.2312 15.5685C20.4229 14.7437 20.4444 13.8876 20.2942 13.0539C21.3592 13.3087 22.3081 13.9205 22.9872 14.7902C23.6663 15.6599 24.0357 16.7366 24.0357 17.8457V22.7691Z" fill="#919191"/>
</svg>
