<svg width="32" height="32" viewBox="0 0 32 32" fill="none" xmlns="http://www.w3.org/2000/svg">
<rect width="32" height="32" rx="10" fill="#F5FAFF"/>
<path d="M19.6549 11.7369C19.1054 10.4329 18.1286 9.36128 16.8896 8.70313C15.6505 8.04498 14.2253 7.8407 12.8548 8.12483C11.4843 8.40896 10.2527 9.16407 9.3681 10.2625C8.48351 11.3609 8.00024 12.7353 8 14.1532V19.0766C8 19.403 8.12793 19.7161 8.35566 19.9469C8.58338 20.1778 8.89224 20.3074 9.21429 20.3074H13.3633C13.8371 21.4042 14.6157 22.3374 15.6039 22.9931C16.5922 23.6488 17.7474 23.9987 18.9286 24H23.7857C24.1078 24 24.4166 23.8703 24.6443 23.6395C24.8721 23.4087 25 23.0956 25 22.7691V17.8457C24.9997 16.3412 24.4557 14.8889 23.4709 13.7634C22.486 12.6378 21.1285 11.9169 19.6549 11.7369ZM23.7857 22.7691H18.9286C18.0697 22.7682 17.2264 22.5368 16.4842 22.0987C15.7421 21.6605 15.1275 21.0311 14.7029 20.2744C15.5344 20.1869 16.3392 19.9261 17.0666 19.5085C17.794 19.0908 18.4284 18.5252 18.93 17.8472C19.4316 17.1692 19.7894 16.3934 19.9812 15.5685C20.1729 14.7437 20.1944 13.8876 20.0442 13.0539C21.1092 13.3087 22.0581 13.9205 22.7372 14.7902C23.4163 15.6599 23.7857 16.7366 23.7857 17.8457V22.7691Z" fill="url(#paint0_linear_2068_1469)"/>
<defs>
<linearGradient id="paint0_linear_2068_1469" x1="16.5" y1="8" x2="16.5" y2="24" gradientUnits="userSpaceOnUse">
<stop stop-color="#200122"/>
<stop offset="1" stop-color="#108DC7"/>
</linearGradient>
</defs>
</svg>
