<svg width="29" height="28" viewBox="0 0 29 28" fill="none" xmlns="http://www.w3.org/2000/svg">
<g clip-path="url(#clip0_3_346)">
<path d="M13.0009 7.02514C14.0841 7.02415 15.1433 7.34446 16.0444 7.94554C16.9456 8.54662 17.6482 9.40147 18.0634 10.402C18.4786 11.4024 18.5878 12.5036 18.3771 13.5661C18.1663 14.6286 17.6452 15.6048 16.8796 16.3711C16.114 17.1374 15.1383 17.6594 14.076 17.8711C13.0137 18.0828 11.9124 17.9746 10.9116 17.5603C9.91072 17.146 9.05523 16.4442 8.45333 15.5436C7.85142 14.643 7.53015 13.5841 7.53015 12.5009C7.53671 11.0515 8.11504 9.66331 9.13945 8.63797C10.1639 7.61263 11.5515 7.03303 13.0009 7.02514ZM13.0009 6C11.7151 6 10.4583 6.38127 9.3892 7.0956C8.32013 7.80993 7.48689 8.82523 6.99485 10.0131C6.50282 11.201 6.37408 12.5081 6.62492 13.7692C6.87575 15.0302 7.49491 16.1886 8.40407 17.0977C9.31324 18.0069 10.4716 18.626 11.7326 18.8769C12.9937 19.1277 14.3008 18.999 15.4887 18.5069C16.6766 18.0149 17.6919 17.1817 18.4062 16.1126C19.1205 15.0435 19.5018 13.7867 19.5018 12.5009C19.5018 10.7768 18.8169 9.12322 17.5977 7.90407C16.3786 6.68491 14.725 6 13.0009 6Z" fill="#A5BCE7"/>
<path d="M22.3373 21.1472L18.6517 17.4366L17.9417 18.1417L21.6272 21.8523C21.6735 21.8989 21.7285 21.9359 21.7891 21.9613C21.8497 21.9867 21.9147 21.9998 21.9804 22.0001C22.0462 22.0003 22.1113 21.9876 22.1721 21.9626C22.2328 21.9377 22.2881 21.9011 22.3348 21.8548C22.3814 21.8085 22.4184 21.7534 22.4438 21.6928C22.4692 21.6322 22.4823 21.5672 22.4826 21.5015C22.4828 21.4358 22.4701 21.3707 22.4451 21.3099C22.4202 21.2491 22.3836 21.1938 22.3373 21.1472Z" fill="#A5BCE7"/>
</g>
<defs>
<clipPath id="clip0_3_346">
<rect width="28" height="28" fill="white" transform="translate(0.5)"/>
</clipPath>
</defs>
</svg>
