<svg width="32" height="32" viewBox="0 0 32 32" fill="none" xmlns="http://www.w3.org/2000/svg">
<path d="M16.9111 8.42786C16.6045 8.15239 16.2069 8 15.7947 8C15.3826 8 14.9849 8.15239 14.6783 8.42786L8.55347 13.9313C8.37932 14.0879 8.24006 14.2794 8.14471 14.4933C8.04936 14.7072 8.00005 14.9388 8 15.173V23.0296C8 23.4726 8.17599 23.8975 8.48926 24.2107C8.80252 24.524 9.2274 24.7 9.67042 24.7H11.8977C12.3407 24.7 12.7656 24.524 13.0788 24.2107C13.3921 23.8975 13.5681 23.4726 13.5681 23.0296V18.5751C13.5681 18.4274 13.6267 18.2858 13.7312 18.1814C13.8356 18.077 13.9772 18.0183 14.1249 18.0183H17.4657C17.6134 18.0183 17.755 18.077 17.8594 18.1814C17.9639 18.2858 18.0225 18.4274 18.0225 18.5751V23.0296C18.0225 23.4726 18.1985 23.8975 18.5118 24.2107C18.8251 24.524 19.2499 24.7 19.693 24.7H21.9202C22.3632 24.7 22.7881 24.524 23.1014 24.2107C23.4146 23.8975 23.5906 23.4726 23.5906 23.0296V15.173C23.5906 14.9388 23.5413 14.7072 23.4459 14.4933C23.3506 14.2794 23.2113 14.0879 23.0371 13.9313L16.9123 8.42786H16.9111Z" fill="#919191"/>
</svg>
