<svg width="72" height="70" viewBox="0 0 72 70" fill="none" xmlns="http://www.w3.org/2000/svg">
<g filter="url(#filter0_d_4_1087)">
<path d="M62 30C62 15.6406 50.3594 4 36 4C21.6406 4 10 15.6406 10 30C10 44.3594 21.6406 56 36 56C50.3594 56 62 44.3594 62 30Z" fill="url(#paint0_linear_4_1087)"/>
</g>
<path d="M43.1767 22.4512L25.3641 27.0387C24.884 27.1631 24.4518 27.4253 24.1205 27.7932C23.7892 28.1612 23.5732 28.6189 23.4987 29.1105C23.4138 29.586 23.4725 30.0776 23.6673 30.5225C23.8622 30.9674 24.1844 31.3454 24.5928 31.6084L29.9864 35.0904C30.0132 35.1335 30.0439 35.1741 30.0779 35.2117C30.1047 35.2548 30.1353 35.2953 30.1694 35.333L32.0324 41.4684C32.1729 41.9329 32.448 42.3464 32.8225 42.6561C33.1971 42.9659 33.6541 43.1578 34.1353 43.2074C34.786 43.2957 35.4431 43.1301 35.9702 42.7448C36.2432 42.5393 36.4724 42.2813 36.6446 41.9857L45.9725 26.1566C46.2293 25.7331 46.3523 25.2408 46.3255 24.7435C46.2987 24.2462 46.1234 23.7669 45.8222 23.3678C45.5211 22.9687 45.1081 22.6683 44.6367 22.5054C44.1654 22.3425 43.6576 22.3248 43.1791 22.4545L43.1767 22.4512ZM25.0406 29.387C25.0762 29.1312 25.2111 28.9008 25.4161 28.7457C25.5223 28.6661 25.6435 28.6087 25.7727 28.5769L43.6027 23.9763L43.6946 23.9675L30.7745 33.6869L25.4351 30.2635C25.2885 30.174 25.1723 30.0421 25.1018 29.8855C25.0313 29.7289 25.01 29.555 25.0406 29.387ZM35.2762 41.1721C35.1797 41.3412 35.0348 41.4771 34.8599 41.5625C34.685 41.6478 34.4881 41.6788 34.2945 41.6513C34.1236 41.6346 33.9615 41.5659 33.8298 41.4546C33.6981 41.3433 33.6031 41.1946 33.5576 41.0285L31.7349 34.9597L44.6566 25.2392L44.6165 25.3298L35.2762 41.1721Z" fill="white"/>
<defs>
<filter id="filter0_d_4_1087" x="0" y="0" width="72" height="72" filterUnits="userSpaceOnUse" color-interpolation-filters="sRGB">
<feFlood flood-opacity="0" result="BackgroundImageFix"/>
<feColorMatrix in="SourceAlpha" type="matrix" values="0 0 0 0 0 0 0 0 0 0 0 0 0 0 0 0 0 0 127 0" result="hardAlpha"/>
<feOffset dy="6"/>
<feGaussianBlur stdDeviation="5"/>
<feColorMatrix type="matrix" values="0 0 0 0 0.859183 0 0 0 0 0.0394562 0 0 0 0 0.873077 0 0 0 0.1 0"/>
<feBlend mode="normal" in2="BackgroundImageFix" result="effect1_dropShadow_4_1087"/>
<feBlend mode="normal" in="SourceGraphic" in2="effect1_dropShadow_4_1087" result="shape"/>
</filter>
<linearGradient id="paint0_linear_4_1087" x1="36" y1="4" x2="36" y2="56" gradientUnits="userSpaceOnUse">
<stop stop-color="#200122"/>
<stop offset="1" stop-color="#108DC7"/>
</linearGradient>
</defs>
</svg>
