<svg width="33" height="32" viewBox="0 0 33 32" fill="none" xmlns="http://www.w3.org/2000/svg">
<path d="M20.1549 11.7369C19.6054 10.4329 18.6286 9.36128 17.3896 8.70313C16.1505 8.04498 14.7253 7.8407 13.3548 8.12483C11.9843 8.40896 10.7527 9.16407 9.8681 10.2625C8.98351 11.3609 8.50024 12.7353 8.5 14.1532V19.0766C8.5 19.403 8.62793 19.7161 8.85566 19.9469C9.08338 20.1778 9.39224 20.3074 9.71429 20.3074H13.8633C14.3371 21.4042 15.1157 22.3374 16.1039 22.9931C17.0922 23.6488 18.2474 23.9987 19.4286 24H24.2857C24.6078 24 24.9166 23.8703 25.1443 23.6395C25.3721 23.4087 25.5 23.0956 25.5 22.7691V17.8457C25.4997 16.3412 24.9557 14.8889 23.9709 13.7634C22.986 12.6378 21.6285 11.9169 20.1549 11.7369ZM24.2857 22.7691H19.4286C18.5697 22.7682 17.7264 22.5368 16.9842 22.0987C16.2421 21.6605 15.6275 21.0311 15.2029 20.2744C16.0344 20.1869 16.8392 19.9261 17.5666 19.5085C18.294 19.0908 18.9284 18.5252 19.43 17.8472C19.9316 17.1692 20.2894 16.3934 20.4812 15.5685C20.6729 14.7437 20.6944 13.8876 20.5442 13.0539C21.6092 13.3087 22.5581 13.9205 23.2372 14.7902C23.9163 15.6599 24.2857 16.7366 24.2857 17.8457V22.7691Z" fill="url(#paint0_linear_5_1547)"/>
<defs>
<linearGradient id="paint0_linear_5_1547" x1="17" y1="8" x2="17" y2="24" gradientUnits="userSpaceOnUse">
<stop stop-color="#200122"/>
<stop offset="1" stop-color="#108DC7"/>
</linearGradient>
</defs>
</svg>
