<svg width="32" height="32" viewBox="0 0 32 32" fill="none" xmlns="http://www.w3.org/2000/svg">
<path d="M16.3063 8C15.199 8 14.137 8.43986 13.3541 9.22283C12.5711 10.0058 12.1313 11.0677 12.1313 12.175C12.1313 13.2823 12.5711 14.3442 13.3541 15.1272C14.137 15.9101 15.199 16.35 16.3063 16.35C17.4135 16.35 18.4755 15.9101 19.2584 15.1272C20.0414 14.3442 20.4813 13.2823 20.4813 12.175C20.4813 11.0677 20.0414 10.0058 19.2584 9.22283C18.4755 8.43986 17.4135 8 16.3063 8ZM11.0969 17.3938C10.822 17.3927 10.5496 17.4458 10.2953 17.5502C10.041 17.6546 9.80985 17.8082 9.61504 18.0021C9.42023 18.1961 9.26562 18.4266 9.16008 18.6804C9.05453 18.9342 9.00014 19.2064 9 19.4813C9 21.2462 9.86944 22.577 11.2284 23.4444C12.5665 24.2971 14.3701 24.7 16.3063 24.7C18.2424 24.7 20.046 24.2971 21.3841 23.4444C22.7431 22.5781 23.6125 21.2462 23.6125 19.4813C23.6125 18.9276 23.3926 18.3966 23.0011 18.0052C22.6096 17.6137 22.0786 17.3938 21.525 17.3938H11.0969Z" fill="#919191"/>
</svg>
