<svg width="33" height="32" viewBox="0 0 33 32" fill="none" xmlns="http://www.w3.org/2000/svg">
<g clip-path="url(#clip0_2150_664)">
<rect x="0.75" width="32" height="32" rx="10" fill="#F5FAFF"/>
<path d="M15.2509 9.02514C16.3341 9.02415 17.3933 9.34446 18.2944 9.94554C19.1956 10.5466 19.8982 11.4015 20.3134 12.402C20.7286 13.4024 20.8378 14.5036 20.6271 15.5661C20.4163 16.6286 19.8952 17.6048 19.1296 18.3711C18.364 19.1374 17.3883 19.6594 16.326 19.8711C15.2637 20.0828 14.1624 19.9746 13.1616 19.5603C12.1607 19.146 11.3052 18.4442 10.7033 17.5436C10.1014 16.643 9.78015 15.5841 9.78015 14.5009C9.78671 13.0515 10.365 11.6633 11.3894 10.638C12.4139 9.61263 13.8015 9.03303 15.2509 9.02514V9.02514ZM15.2509 8C13.9651 8 12.7083 8.38127 11.6392 9.0956C10.5701 9.80993 9.73689 10.8252 9.24485 12.0131C8.75282 13.201 8.62408 14.5081 8.87492 15.7692C9.12575 17.0302 9.74491 18.1886 10.6541 19.0977C11.5632 20.0069 12.7216 20.6261 13.9826 20.8769C15.2437 21.1277 16.5508 20.999 17.7387 20.507C18.9266 20.0149 19.9419 19.1817 20.6562 18.1126C21.3705 17.0435 21.7518 15.7867 21.7518 14.5009C21.7518 12.7768 21.0669 11.1232 19.8477 9.90407C18.6286 8.68491 16.9751 8 15.2509 8Z" fill="url(#paint0_linear_2150_664)"/>
<path d="M24.5872 23.1471L20.9017 19.4366L20.1916 20.1417L23.8771 23.8522C23.9234 23.8988 23.9784 23.9359 24.039 23.9612C24.0997 23.9866 24.1647 23.9998 24.2304 24C24.2961 24.0002 24.3612 23.9875 24.422 23.9626C24.4828 23.9377 24.5381 23.901 24.5847 23.8547C24.6313 23.8084 24.6684 23.7534 24.6937 23.6928C24.7191 23.6321 24.7323 23.5671 24.7325 23.5014C24.7327 23.4357 24.72 23.3706 24.6951 23.3098C24.6702 23.249 24.6335 23.1937 24.5872 23.1471Z" fill="url(#paint1_linear_2150_664)"/>
</g>
<defs>
<linearGradient id="paint0_linear_2150_664" x1="15.2509" y1="8" x2="15.2509" y2="21.0018" gradientUnits="userSpaceOnUse">
<stop stop-color="#200122"/>
<stop offset="1" stop-color="#108DC7"/>
</linearGradient>
<linearGradient id="paint1_linear_2150_664" x1="22.462" y1="19.4366" x2="22.462" y2="24" gradientUnits="userSpaceOnUse">
<stop stop-color="#200122"/>
<stop offset="1" stop-color="#108DC7"/>
</linearGradient>
<clipPath id="clip0_2150_664">
<rect x="0.75" width="32" height="32" rx="10" fill="white"/>
</clipPath>
</defs>
</svg>
