<svg width="32" height="32" viewBox="0 0 32 32" fill="none" xmlns="http://www.w3.org/2000/svg">
<g clip-path="url(#clip0_2_78)">
<path d="M14.5009 9.02514C15.5841 9.02415 16.6433 9.34446 17.5444 9.94554C18.4456 10.5466 19.1482 11.4015 19.5634 12.402C19.9786 13.4024 20.0878 14.5036 19.8771 15.5661C19.6663 16.6286 19.1452 17.6048 18.3796 18.3711C17.614 19.1374 16.6383 19.6594 15.576 19.8711C14.5137 20.0828 13.4124 19.9746 12.4116 19.5603C11.4107 19.146 10.5552 18.4442 9.95333 17.5436C9.35142 16.643 9.03015 15.5841 9.03015 14.5009C9.03671 13.0515 9.61505 11.6633 10.6394 10.638C11.6639 9.61263 13.0515 9.03303 14.5009 9.02514ZM14.5009 8C13.2151 8 11.9583 8.38127 10.8892 9.0956C9.82013 9.80993 8.98689 10.8252 8.49485 12.0131C8.00282 13.201 7.87408 14.5081 8.12492 15.7692C8.37575 17.0302 8.99491 18.1886 9.90407 19.0977C10.8132 20.0069 11.9716 20.6261 13.2326 20.8769C14.4937 21.1277 15.8008 20.999 16.9887 20.507C18.1766 20.0149 19.1919 19.1817 19.9062 18.1126C20.6205 17.0435 21.0018 15.7867 21.0018 14.5009C21.0018 12.7768 20.3169 11.1232 19.0977 9.90407C17.8786 8.68491 16.2251 8 14.5009 8Z" fill="#919191"/>
<path d="M23.8372 23.1471L20.1517 19.4366L19.4416 20.1417L23.1271 23.8522C23.1734 23.8988 23.2284 23.9359 23.289 23.9612C23.3497 23.9866 23.4147 23.9998 23.4804 24C23.5461 24.0002 23.6112 23.9875 23.672 23.9626C23.7328 23.9377 23.7881 23.901 23.8347 23.8547C23.8813 23.8084 23.9184 23.7534 23.9437 23.6928C23.9691 23.6321 23.9823 23.5671 23.9825 23.5014C23.9827 23.4357 23.97 23.3706 23.9451 23.3098C23.9202 23.249 23.8835 23.1937 23.8372 23.1471Z" fill="#919191"/>
</g>
<defs>
<clipPath id="clip0_2_78">
<rect width="32" height="32" fill="white"/>
</clipPath>
</defs>
</svg>
