<svg width="32" height="32" viewBox="0 0 32 32" fill="none" xmlns="http://www.w3.org/2000/svg">
<path d="M0 16C0 7.16344 7.16344 0 16 0V0C24.8366 0 32 7.16344 32 16V16C32 24.8366 24.8366 32 16 32V32C7.16344 32 0 24.8366 0 16V16Z" fill="url(#paint0_linear_2116_928)"/>
<path fill-rule="evenodd" clip-rule="evenodd" d="M20.9732 10.516C20.5932 10.584 20.0572 10.76 19.1972 11.046L12.7052 13.211C11.8772 13.487 11.2932 13.682 10.8732 13.846C10.7193 13.9049 10.5685 13.9713 10.4212 14.045C10.3352 14.09 10.3052 14.115 10.3032 14.115C10.2069 14.2083 10.1303 14.3199 10.078 14.4433C10.0257 14.5668 9.99872 14.6995 9.99872 14.8335C9.99872 14.9676 10.0257 15.1003 10.078 15.2237C10.1303 15.3471 10.2069 15.4588 10.3032 15.552C10.3408 15.5784 10.3803 15.6021 10.4212 15.623C10.5212 15.676 10.6662 15.741 10.8732 15.823C11.2932 15.986 11.8772 16.181 12.7052 16.457L12.7612 16.476C13.0342 16.566 13.2742 16.646 13.4952 16.763C14.028 17.0447 14.4635 17.4803 14.7452 18.013C14.8622 18.233 14.9422 18.473 15.0322 18.747L15.0522 18.803C15.3272 19.631 15.5222 20.215 15.6862 20.635C15.7432 20.7896 15.8096 20.9406 15.8852 21.087C15.9302 21.173 15.9552 21.203 15.9552 21.205C16.0484 21.3013 16.1601 21.3779 16.2835 21.4302C16.407 21.4825 16.5396 21.5095 16.6737 21.5095C16.8078 21.5095 16.9404 21.4825 17.0639 21.4302C17.1873 21.3779 17.299 21.3013 17.3922 21.205C17.4185 21.1674 17.4423 21.1279 17.4632 21.087C17.5162 20.987 17.5812 20.842 17.6632 20.634C17.8262 20.214 18.0212 19.631 18.2972 18.804L20.4602 12.313C20.7472 11.453 20.9232 10.915 20.9902 10.536L20.9952 10.513L20.9732 10.516ZM20.6232 8.54702C21.1732 8.44902 21.9282 8.42002 22.5082 9.00002C23.0882 9.58002 23.0582 10.334 22.9612 10.885C22.8652 11.427 22.6382 12.106 22.3832 12.872L22.3592 12.944L20.1952 19.434L20.1852 19.464C19.9212 20.256 19.7112 20.888 19.5262 21.36C19.3532 21.805 19.1482 22.265 18.8382 22.587C18.5583 22.8783 18.2224 23.11 17.8507 23.2683C17.479 23.4266 17.0792 23.5082 16.6752 23.5082C16.2712 23.5082 15.8714 23.4266 15.4997 23.2683C15.128 23.11 14.7921 22.8783 14.5122 22.587C14.2022 22.265 13.9972 21.805 13.8242 21.36C13.6392 20.888 13.4292 20.256 13.1642 19.463L13.1542 19.435C13.0342 19.074 13.0072 19.002 12.9782 18.947C12.8843 18.7693 12.739 18.6239 12.5612 18.53C12.5062 18.5 12.4342 18.474 12.0732 18.353L12.0452 18.343C11.2522 18.079 10.6202 17.869 10.1472 17.684C9.70319 17.511 9.24319 17.306 8.92119 16.996C8.62992 16.7161 8.39818 16.3802 8.23989 16.0085C8.08159 15.6368 8 15.237 8 14.833C8 14.429 8.08159 14.0292 8.23989 13.6575C8.39818 13.2858 8.62992 12.95 8.92119 12.67C9.24319 12.36 9.70319 12.155 10.1472 11.982C10.7749 11.7479 11.4077 11.5279 12.0452 11.322L12.0732 11.312L18.5642 9.14902L18.6362 9.12502C19.4022 8.87002 20.0812 8.64302 20.6232 8.54702Z" fill="#0B0B5C"/>
<path fill-rule="evenodd" clip-rule="evenodd" d="M20.9732 10.516C20.5932 10.584 20.0572 10.76 19.1972 11.046L12.7052 13.211C11.8772 13.487 11.2932 13.682 10.8732 13.846C10.7193 13.9049 10.5685 13.9713 10.4212 14.045C10.3352 14.09 10.3052 14.115 10.3032 14.115C10.2069 14.2083 10.1303 14.3199 10.078 14.4433C10.0257 14.5668 9.99872 14.6995 9.99872 14.8335C9.99872 14.9676 10.0257 15.1003 10.078 15.2237C10.1303 15.3471 10.2069 15.4588 10.3032 15.552C10.3408 15.5784 10.3803 15.6021 10.4212 15.623C10.5212 15.676 10.6662 15.741 10.8732 15.823C11.2932 15.986 11.8772 16.181 12.7052 16.457L12.7612 16.476C13.0342 16.566 13.2742 16.646 13.4952 16.763C14.028 17.0447 14.4635 17.4803 14.7452 18.013C14.8622 18.233 14.9422 18.473 15.0322 18.747L15.0522 18.803C15.3272 19.631 15.5222 20.215 15.6862 20.635C15.7432 20.7896 15.8096 20.9406 15.8852 21.087C15.9302 21.173 15.9552 21.203 15.9552 21.205C16.0484 21.3013 16.1601 21.3779 16.2835 21.4302C16.407 21.4825 16.5396 21.5095 16.6737 21.5095C16.8078 21.5095 16.9404 21.4825 17.0639 21.4302C17.1873 21.3779 17.299 21.3013 17.3922 21.205C17.4185 21.1674 17.4423 21.1279 17.4632 21.087C17.5162 20.987 17.5812 20.842 17.6632 20.634C17.8262 20.214 18.0212 19.631 18.2972 18.804L20.4602 12.313C20.7472 11.453 20.9232 10.915 20.9902 10.536L20.9952 10.513L20.9732 10.516ZM20.6232 8.54702C21.1732 8.44902 21.9282 8.42002 22.5082 9.00002C23.0882 9.58002 23.0582 10.334 22.9612 10.885C22.8652 11.427 22.6382 12.106 22.3832 12.872L22.3592 12.944L20.1952 19.434L20.1852 19.464C19.9212 20.256 19.7112 20.888 19.5262 21.36C19.3532 21.805 19.1482 22.265 18.8382 22.587C18.5583 22.8783 18.2224 23.11 17.8507 23.2683C17.479 23.4266 17.0792 23.5082 16.6752 23.5082C16.2712 23.5082 15.8714 23.4266 15.4997 23.2683C15.128 23.11 14.7921 22.8783 14.5122 22.587C14.2022 22.265 13.9972 21.805 13.8242 21.36C13.6392 20.888 13.4292 20.256 13.1642 19.463L13.1542 19.435C13.0342 19.074 13.0072 19.002 12.9782 18.947C12.8843 18.7693 12.739 18.6239 12.5612 18.53C12.5062 18.5 12.4342 18.474 12.0732 18.353L12.0452 18.343C11.2522 18.079 10.6202 17.869 10.1472 17.684C9.70319 17.511 9.24319 17.306 8.92119 16.996C8.62992 16.7161 8.39818 16.3802 8.23989 16.0085C8.08159 15.6368 8 15.237 8 14.833C8 14.429 8.08159 14.0292 8.23989 13.6575C8.39818 13.2858 8.62992 12.95 8.92119 12.67C9.24319 12.36 9.70319 12.155 10.1472 11.982C10.7749 11.7479 11.4077 11.5279 12.0452 11.322L12.0732 11.312L18.5642 9.14902L18.6362 9.12502C19.4022 8.87002 20.0812 8.64302 20.6232 8.54702Z" fill="white"/>
<defs>
<linearGradient id="paint0_linear_2116_928" x1="16" y1="0" x2="16" y2="32" gradientUnits="userSpaceOnUse">
<stop stop-color="#200122"/>
<stop offset="1" stop-color="#108DC7"/>
</linearGradient>
</defs>
</svg>
