<svg width="32" height="32" viewBox="0 0 32 32" fill="none" xmlns="http://www.w3.org/2000/svg">
<rect width="32" height="32" rx="12" fill="white"/>
<path d="M13.2952 24.6666L12.9503 21.8933C12.7634 21.8211 12.5875 21.7344 12.4225 21.6333C12.2575 21.5322 12.0957 21.4239 11.937 21.3083L9.37148 22.3916L7 18.275L9.22056 16.585C9.20619 16.4839 9.19901 16.3865 9.19901 16.2929V15.7079C9.19901 15.6137 9.20619 15.5161 9.22056 15.415L7 13.725L9.37148 9.60831L11.937 10.6916C12.0951 10.5761 12.2604 10.4678 12.4328 10.3666C12.6053 10.2655 12.7778 10.1789 12.9503 10.1066L13.2952 7.33331H18.0381L18.3831 10.1066C18.5699 10.1789 18.7461 10.2655 18.9117 10.3666C19.0773 10.4678 19.2388 10.5761 19.3964 10.6916L21.9619 9.60831L24.3333 13.725L22.1128 15.415C22.1271 15.5161 22.1343 15.6137 22.1343 15.7079V16.292C22.1343 16.3862 22.12 16.4839 22.0912 16.585L24.3118 18.275L21.9403 22.3916L19.3964 21.3083C19.2383 21.4239 19.073 21.5322 18.9005 21.6333C18.728 21.7344 18.5556 21.8211 18.3831 21.8933L18.0381 24.6666H13.2952ZM15.7098 19.0333C16.5434 19.0333 17.2548 18.7372 17.8441 18.145C18.4334 17.5528 18.728 16.8378 18.728 16C18.728 15.1622 18.4334 14.4472 17.8441 13.855C17.2548 13.2628 16.5434 12.9666 15.7098 12.9666C14.8618 12.9666 14.1466 13.2628 13.5642 13.855C12.9819 14.4472 12.691 15.1622 12.6915 16C12.6921 16.8378 12.9833 17.5528 13.5651 18.145C14.1469 18.7372 14.8618 19.0333 15.7098 19.0333Z" fill="url(#paint0_linear_2080_754)"/>
<defs>
<linearGradient id="paint0_linear_2080_754" x1="15.6667" y1="7.33331" x2="15.6667" y2="24.6666" gradientUnits="userSpaceOnUse">
<stop stop-color="#200122"/>
<stop offset="1" stop-color="#108DC7"/>
</linearGradient>
</defs>
</svg>
