<svg width="32" height="32" viewBox="0 0 32 32" fill="none" xmlns="http://www.w3.org/2000/svg">
<path d="M12.9619 24L12.6169 21.2267C12.4301 21.1545 12.2542 21.0678 12.0892 20.9667C11.9242 20.8656 11.7623 20.7572 11.6037 20.6417L9.03816 21.725L6.66669 17.6084L8.88725 15.9184C8.87288 15.8172 8.86569 15.7199 8.86569 15.6263V15.0413C8.86569 14.9471 8.87288 14.8495 8.88725 14.7484L6.66669 13.0584L9.03816 8.94169L11.6037 10.025C11.7618 9.90946 11.9271 9.80113 12.0995 9.70002C12.272 9.59891 12.4445 9.51224 12.6169 9.44002L12.9619 6.66669H17.7048L18.0498 9.44002C18.2366 9.51224 18.4128 9.59891 18.5784 9.70002C18.744 9.80113 18.9055 9.90946 19.063 10.025L21.6285 8.94169L24 13.0584L21.7795 14.7484C21.7938 14.8495 21.801 14.9471 21.801 15.0413V15.6254C21.801 15.7196 21.7866 15.8172 21.7579 15.9184L23.9785 17.6084L21.607 21.725L19.063 20.6417C18.9049 20.7572 18.7397 20.8656 18.5672 20.9667C18.3947 21.0678 18.2222 21.1545 18.0498 21.2267L17.7048 24H12.9619ZM15.3765 18.3667C16.2101 18.3667 16.9215 18.0706 17.5108 17.4784C18.1001 16.8861 18.3947 16.1711 18.3947 15.3334C18.3947 14.4956 18.1001 13.7806 17.5108 13.1884C16.9215 12.5961 16.2101 12.3 15.3765 12.3C14.5285 12.3 13.8133 12.5961 13.2309 13.1884C12.6486 13.7806 12.3577 14.4956 12.3582 15.3334C12.3588 16.1711 12.65 16.8861 13.2318 17.4784C13.8136 18.0706 14.5285 18.3667 15.3765 18.3667Z" fill="#919191"/>
</svg>
